PathFileType	4	(X/Y/Z)	C:/Users/opensim2020/Desktop/walking_exp_matlab/subject06_walking14_straight_03.trc																																																																																																																																					
DataRate	CameraRate	NumFrames	NumMarkers	Units	OrigDataRate	OrigDataStartFrame	OrigNumFrames																																																																																																																																	
100	100	6	45	mm	100	2266	233																																																																																																																																	
Frame#	Time	LFHD			RFHD			LBHD			RBHD			C7			T10			CLAV			STRN			RBAK			LSHO			LUPA			LELB			LFRM			LWRA			LWRB			LFIN			RSHO			RUPA			RELB			RFRM			RWRA			RWRB			RFIN			LASI			RASI			LPSI			RPSI			LTHI			LKNE			LTIB			LANK			LHEE			LTOE			RTHI			RKNE			RTIB			RANK			RHEE			RTOE			*39			*40			*41			*42			*43			*44		
		X1	Y1	Z1	X2	Y2	Z2	X3	Y3	Z3	X4	Y4	Z4	X5	Y5	Z5	X6	Y6	Z6	X7	Y7	Z7	X8	Y8	Z8	X9	Y9	Z9	X10	Y10	Z10	X11	Y11	Z11	X12	Y12	Z12	X13	Y13	Z13	X14	Y14	Z14	X15	Y15	Z15	X16	Y16	Z16	X17	Y17	Z17	X18	Y18	Z18	X19	Y19	Z19	X20	Y20	Z20	X21	Y21	Z21	X22	Y22	Z22	X23	Y23	Z23	X24	Y24	Z24	X25	Y25	Z25	X26	Y26	Z26	X27	Y27	Z27	X28	Y28	Z28	X29	Y29	Z29	X30	Y30	Z30	X31	Y31	Z31	X32	Y32	Z32	X33	Y33	Z33	X34	Y34	Z34	X35	Y35	Z35	X36	Y36	Z36	X37	Y37	Z37	X38	Y38	Z38	X39	Y39	Z39	X40	Y40	Z40	X41	Y41	Z41	X42	Y42	Z42	X43	Y43	Z43	X44	Y44	Z44	X45	Y45	Z45
																																																																																																																																								
59	0.58	-385.10306	1671.4939	1372.96338	-384.38397	1661.71533	1504.29956	-514.50427	1608.29932	1373.19177	-512.60052	1604.14355	1502.75964	-503.07651	1454.14209	1427.10242	-547.89398	1130.49231	1435.62488	-391.42361	1378.07642	1432.0647	-354.76971	1201.1189	1423.9259	-576.95782	1287.32837	1499.5697	-439.54773	1412.53711	1268.53699	-423.32819	1211.36182	1198.83142	-413.15585	1098.96509	1187.00085	-326.69238	978.88184	1160.93408	-209.91904	920.84399	1194.97559	-259.64807	879.99194	1165.8595	-179.4017	839.63654	1157.24695	-441.83612	1408.13416	1590.98059	-507.40234	1217.07983	1675.84241	-518.22455	1094.37061	1685.94727	-526.42932	974.07935	1702.39734	-500.88419	823.51074	1668.25122	-549.46509	837.74237	1711.51404	-532.12256	754.07086	1710.76514	-384.36758	957.94739	1323.44141	-370.21179	973.00562	1540.83801	-539.7384	993.04468	1362.67749	-521.41748	1002.1402	1528.81555	-482.81058	645.80109	1268.32849	-499.78229	481.58264	1283.56531	-688.00928	311.25916	1283.30237	-809.51868	188.11942	1315.43323	-845.04498	206.56023	1362.51282	-746.04169	55.73234	1320.19409	-383.66693	643.66736	1611.53455	-350.31787	524.92291	1582.29456	-367.58243	257.28531	1579.62964	-356.59503	72.10623	1530.62891	-390.98135	47.82431	1483.47717	-199.45628	40.36991	1532.1499	-487.64749	1704.16016	1431.90308	NaN	NaN	NaN	NaN	NaN	NaN	NaN	NaN	NaN	NaN	NaN	NaN	NaN	NaN	NaN
60	0.59	-375.7049	1673.35193	1374.27539	-374.33905	1663.60266	1505.65283	-504.89008	1609.69739	1374.93982	-502.48499	1605.54773	1504.52661	-492.88867	1455.72864	1429.01965	-537.15839	1132.00256	1437.5835	-381.04523	1379.82971	1433.43384	-344.29193	1202.74011	1425.21545	-566.31677	1288.61902	1502.31995	-430.26584	1414.11133	1269.96277	-416.56537	1212.36389	1200.74756	-407.0639	1099.90771	1189.40002	-323.97482	977.16943	1163.32666	-208.54913	915.59082	1196.74719	-259.99286	876.40417	1168.08643	-180.95811	833.12958	1159.22974	-430.64542	1409.71924	1592.50732	-493.74921	1218.05945	1678.16382	-502.98264	1095.3075	1688.5166	-508.33929	974.72137	1705.19934	-479.27902	825.099	1671.06702	-528.33282	837.88074	1714.10913	-508.91815	754.86401	1713.44189	-374.04498	959.51031	1324.81763	-359.82779	974.14325	1542.43713	-529.53192	994.48688	1364.11084	-511.15112	1003.6889	1530.37903	-469.03058	646.4964	1269.88733	-482.59106	482.21802	1284.93201	-671.54926	313.97638	1284.81482	-794.73633	192.65265	1317.15991	-830.04242	210.51375	1364.72681	-730.95258	60.12879	1319.5531	-376.68567	644.60553	1612.54224	-345.66492	525.03748	1583.50867	-366.12717	257.54428	1580.31946	-356.59784	72.10052	1530.88525	-391.12115	47.82754	1483.77466	-199.29671	40.01297	1531.89246	-478.25546	1705.64404	1433.54321	NaN	NaN	NaN	NaN	NaN	NaN	NaN	NaN	NaN	NaN	NaN	NaN	NaN	NaN	NaN
61	0.6	-366.33188	1675.05542	1375.51672	-364.47992	1665.31348	1506.89648	-495.33365	1611.03833	1376.66541	-492.46024	1606.88013	1506.18909	-482.72974	1457.26843	1430.87964	-526.83624	1133.35254	1439.47717	-370.89005	1381.44226	1434.80896	-334.07108	1204.23267	1426.48425	-555.81403	1289.73645	1505.01514	-421.02573	1415.32458	1271.3324	-410.03214	1213.09656	1202.4054	-401.16422	1100.49561	1191.72107	-321.25977	975.20892	1165.60071	-207.70712	910.06073	1198.47009	-260.65878	872.52075	1170.40112	-183.03564	826.58276	1161.17456	-419.59344	1411.07813	1594.10803	-480.0444	1218.73926	1680.45203	-487.6239	1095.91272	1691.23914	-490.24896	975.31952	1708.01501	-457.57703	826.56366	1673.67773	-506.81903	838.00116	1716.77234	-485.71054	755.51172	1715.67444	-363.76846	960.90881	1326.21533	-349.64371	975.19916	1544.04956	-519.36847	995.77411	1365.39771	-501.18256	1005.03577	1531.70239	-455.14401	647.26801	1271.46423	-465.30557	483.03497	1286.32068	-654.4967	316.07275	1286.63525	-778.36932	195.72601	1318.84412	-814.18359	212.96678	1366.74573	-713.55969	64.34689	1319.3678	-369.38803	645.30676	1613.65076	-340.96756	525.07111	1584.56262	-363.65634	257.70029	1581.28845	-356.5032	72.09525	1531.22607	-391.20062	47.81408	1484.17773	-198.9872	39.75234	1531.69617	-468.74973	1707.08228	1435.10168	NaN	NaN	NaN	NaN	NaN	NaN	NaN	NaN	NaN	NaN	NaN	NaN	NaN	NaN	NaN
62	0.61	-356.86697	1676.59119	1376.71899	-354.66803	1666.91248	1508.04785	-485.70319	1612.27686	1378.29065	-482.49231	1608.22058	1507.80371	-472.29175	1458.70972	1432.54297	-516.6405	1134.56653	1441.26404	-360.78882	1382.87939	1436.03796	-323.97119	1205.65869	1427.80176	-545.41907	1290.84619	1507.53894	-411.81683	1416.41357	1272.53418	-403.06778	1213.58826	1204.18542	-395.23056	1100.78308	1193.77271	-319.01309	973.11896	1167.76831	-207.13649	904.3949	1199.73779	-261.78049	868.49164	1172.453	-185.78827	819.86731	1163.04932	-408.6601	1412.24548	1595.63831	-466.41333	1219.19458	1682.68982	-472.09879	1096.42029	1693.99292	-472.15192	975.8374	1710.76074	-435.50137	828.198	1676.31677	-485.10641	838.2099	1719.45923	-461.28156	756.65448	1718.57507	-353.3891	962.22485	1327.64001	-339.65775	976.23669	1545.69067	-509.26712	996.89734	1366.49304	-491.3981	1006.31091	1532.90869	-441.27277	648.22919	1273.33936	-447.84708	484.07538	1287.78015	-636.94965	317.75998	1288.5509	-761.15631	197.69824	1320.4613	-797.16754	214.18144	1368.56995	-694.56378	67.72698	1319.15479	-362.26309	646.05133	1614.54431	-336.23389	525.17749	1585.71582	-361.32468	257.8909	1582.09106	-356.45465	72.0951	1531.5304	-391.2915	47.77975	1484.49084	-199.24675	39.2051	1531.66748	-459.25104	1708.40308	1436.63196	NaN	NaN	NaN	NaN	NaN	NaN	NaN	NaN	NaN	NaN	NaN	NaN	NaN	NaN	NaN
63	0.62	-347.46054	1677.9231	1377.84363	-345.0036	1668.33923	1509.07837	-476.17816	1613.42932	1379.83179	-472.58234	1609.45667	1509.31372	-462.69138	1460.1283	1434.38782	-506.70074	1135.76135	1442.93823	-350.99088	1384.23804	1437.21704	-314.08389	1206.91663	1428.93481	-535.33289	1292.01416	1510.00281	-402.50534	1417.30457	1273.74133	-395.84479	1213.99036	1205.75159	-389.55606	1100.99731	1195.7666	-316.92776	970.90656	1169.88721	-207.37737	898.50378	1201.39624	-263.2749	864.33014	1174.34045	-189.0291	813.20819	1164.75195	-397.78979	1413.31653	1597.12207	-452.82474	1219.54346	1684.86267	-457.00302	1096.88147	1696.54639	-453.9205	976.39709	1713.51074	-413.0589	829.8158	1679.20227	-463.19754	838.52051	1722.04492	-436.91977	757.77032	1721.11353	-343.17389	963.54187	1329.07385	-329.93729	977.17487	1547.33582	-499.25046	997.93317	1367.44189	-481.83194	1007.40662	1534.08923	-427.00552	649.18347	1274.94714	-430.53683	485.19077	1289.3125	-618.97156	318.77859	1290.25647	-742.94751	198.38525	1322.0177	-779.48914	213.92018	1370.30444	-673.98303	70.27884	1319.34607	-355.33417	646.55304	1615.43408	-331.54721	525.09076	1586.73962	-359.4213	258.07425	1582.60303	-356.43179	72.07917	1531.67664	-391.37991	47.80723	1484.62915	-199.14821	39.29389	1531.76025	-449.68777	1709.65662	1438.01746	NaN	NaN	NaN	NaN	NaN	NaN	NaN	NaN	NaN	NaN	NaN	NaN	NaN	NaN	NaN
64	0.63	-337.95987	1679.07422	1378.92407	-335.00018	1669.49658	1510.27161	-466.61777	1614.47278	1381.31616	-462.67697	1610.56458	1510.79919	-452.88104	1461.29993	1435.96436	-496.95999	1136.86572	1444.48596	-341.21579	1385.33594	1438.30286	-304.31763	1208.052	1430.10095	-525.2348	1293.18286	1512.31104	-393.23584	1418.09302	1274.95325	-388.46262	1214.39355	1207.21716	-383.88516	1101.15186	1197.71753	-315.12128	968.75104	1171.83557	-207.84952	892.75549	1202.56287	-265.11426	860.30981	1176.23035	-192.89882	806.61945	1166.34082	-387.11154	1414.32019	1598.47571	-439.28967	1219.90942	1686.93591	-441.59439	1097.31787	1699.15063	-435.53619	976.97113	1716.20667	-390.56161	832.28802	1681.7876	-441.12	839.09912	1724.60144	-412.32867	759.28894	1723.87585	-332.98447	964.74408	1330.50952	-320.34882	978.16296	1549.2135	-489.24435	998.91187	1368.34705	-472.43771	1008.3855	1535.05212	-412.63165	650.21216	1276.52466	-413.26801	486.32822	1290.99219	-600.61029	319.19748	1291.87842	-723.81787	197.80658	1323.50122	-760.65717	212.58246	1371.95422	-652.18152	71.70274	1319.6947	-348.44778	647.03015	1616.42737	-326.7515	524.94666	1587.60535	-358.00122	258.19104	1582.92847	-356.35733	72.07207	1531.70129	-391.38776	47.81037	1484.60596	-199.46408	38.9592	1531.78552	-440.03357	1710.75024	1439.45386	NaN	NaN	NaN	NaN	NaN	NaN	NaN	NaN	NaN	NaN	NaN	NaN	NaN	NaN	NaN
